# xmcd
#
# Track frame offsets:
#       183
#       3535
#       22158
#       38773
#       52050
#       69458
#       83545
#       98943
#       118388
#       133968
#       148965
#       167733
#       179193
#       193093
#       206990
#       228443
#       242733
#       253705
#       266950
#       286160
#       297623
#       318108
#       329413
#
# Disc length: 4558 seconds
#
# Revision: 1
# Processed by: cddbd v1.4PL0 Copyright (c) Steve Scherf et al.
# Submitted via: MusiCat 1.1
#
DISCID=7911cc17
DTITLE=Townes Van Zandt - Live at the Old Quarter, Houston, Texas
DYEAR=1978
DGENRE=
TTITLE0=Announcement
TTITLE1=Pancho and Lefty
TTITLE2=Mr. Mudd and Mr. Gold
TTITLE3=Don't you take it too bad
TTITLE4=Two Girls
TTITLE5=Fraternity Blues
TTITLE6=If I needed you
TTITLE7=Brand New Companion
TTITLE8=White Freightliner Blues
TTITLE9=Too live is too fly
TTITLE10=She came and she touched me
TTITLE11=Talking Thunderbird Blues
TTITLE12=Rex's Blues
TTITLE13=Nine Pound Hammer
TTITLE14=For the sake of the song
TTITLE15=No Place to Fall
TTITLE16=Loretta
TTITLE17=Kathleen
TTITLE18=Tower Song
TTITLE19=Waiting 'round to die
TTITLE20=Tecumseh Valley
TTITLE21=Lungs
TTITLE22=Only Him or Me
EXTD=1978\n\n\nsubmitted by Stamppot
EXTT0=
EXTT1=
EXTT2=
EXTT3=
EXTT4=
EXTT5=
EXTT6=
EXTT7=
EXTT8=
EXTT9=
EXTT10=
EXTT11=
EXTT12=
EXTT13=
EXTT14=
EXTT15=
EXTT16=
EXTT17=
EXTT18=
EXTT19=
EXTT20=
EXTT21=
EXTT22=
PLAYORDER=
